<?xml version="1.0" encoding="utf-8"?><svg xmlns="http://www.w3.org/2000/svg" xmlns:xlink="http://www.w3.org/1999/xlink"><symbol fill="none" viewBox="0 0 9 16" id="arrow-right" xmlns="http://www.w3.org/2000/svg"><path d="m1 1 7 7-7 7" stroke="currentColor" stroke-width="1.8" stroke-linecap="round" stroke-linejoin="round"/></symbol><symbol fill="none" viewBox="0 0 26 23" id="cart" xmlns="http://www.w3.org/2000/svg"><path d="M24.235 16.193H7.952l.818-1.666 13.584-.024a.95.95 0 0 0 .935-.782l1.882-10.53a.95.95 0 0 0-.933-1.119L6.957 2.015l-.148-.695a.971.971 0 0 0-.946-.765H1.64a.965.965 0 1 0 0 1.93H5.08l.646 3.068 1.588 7.692-2.045 3.339a.956.956 0 0 0-.082 1.006c.164.325.495.53.861.53h1.717a2.808 2.808 0 0 0 2.242 4.493 2.808 2.808 0 0 0 2.243-4.493h4.405a2.808 2.808 0 0 0 2.242 4.493 2.808 2.808 0 0 0 2.242-4.493h3.098c.53 0 .965-.432.965-.965a.968.968 0 0 0-.968-.962ZM7.36 3.918l15.745.052-1.543 8.635-12.367.022-1.835-8.709Zm2.65 16.754a.866.866 0 0 1-.864-.865c0-.475.388-.864.864-.864a.866.866 0 0 1 .61 1.475.864.864 0 0 1-.61.254Zm8.889 0a.866.866 0 0 1-.864-.865c0-.475.388-.864.864-.864a.866.866 0 0 1 .611 1.475.864.864 0 0 1-.611.254Z" fill="currentColor"/></symbol><symbol fill="none" viewBox="0 0 14 14" id="compare" xmlns="http://www.w3.org/2000/svg"><path d="m9.08 6 1 1 3.44-3.45L10 0 9 1l1.8 1.8H1v1.4h9.82L9.08 6ZM4.86 8l-1-1-3.44 3.5L3.91 14l1-1-1.81-1.8H13V9.8H3.1L4.86 8Z" fill="currentColor"/></symbol><symbol fill="none" viewBox="0 0 26 24" id="favorite" xmlns="http://www.w3.org/2000/svg"><path fill-rule="evenodd" clip-rule="evenodd" d="M.333 7.275C.333 3.524 3.403.5 7.167.5c1.958 0 3.642 1.052 4.762 1.98.422.35.783.697 1.071.998.288-.3.65-.649 1.07-.998C15.19 1.552 16.876.5 18.834.5c3.764 0 6.834 3.024 6.834 6.775 0 1.432-.288 3.782-1.9 6.58-1.61 2.792-4.508 5.977-9.646 9.135l-.004.003a2.15 2.15 0 0 1-2.234 0l-.004-.003c-5.138-3.158-8.036-6.343-9.646-9.135-1.612-2.798-1.9-5.148-1.9-6.58ZM12.2 5.598l-.002-.002-.017-.022a9.436 9.436 0 0 0-.382-.452 11.045 11.045 0 0 0-1.145-1.102C9.662 3.198 8.43 2.5 7.167 2.5c-2.679 0-4.834 2.147-4.834 4.775 0 1.143.224 3.136 1.633 5.581 1.413 2.451 4.05 5.411 8.96 8.43l-.523.852.52-.854a.148.148 0 0 0 .153 0c4.91-3.018 7.545-5.977 8.958-8.428 1.41-2.445 1.633-4.438 1.633-5.581 0-2.628-2.155-4.775-4.834-4.775-1.262 0-2.495.698-3.486 1.52a11.045 11.045 0 0 0-1.527 1.554l-.017.022-.002.002L13 5m-.8.6v-.001h-.001m0 0Zm0 0A1 1 0 0 0 13 6ZM13 6a1 1 0 0 0 .801-.401Z" fill="currentColor"/></symbol><symbol fill="none" viewBox="0 0 20 14" id="more-arrow" xmlns="http://www.w3.org/2000/svg"><path fill-rule="evenodd" clip-rule="evenodd" d="M12.47.47a.75.75 0 0 0 0 1.06l4.72 4.72H1a.75.75 0 0 0 0 1.5h16.19l-4.72 4.72a.75.75 0 1 0 1.06 1.06l6-6a.75.75 0 0 0 0-1.06l-6-6a.75.75 0 0 0-1.06 0Z" fill="currentColor"/></symbol><symbol fill="none" viewBox="0 0 24 20" id="profile" xmlns="http://www.w3.org/2000/svg"><path d="M21.333 10V4.167h2.334v7h-2.334m0 4.666h2.334V13.5h-2.334M9.667 11.167c3.115 0 9.333 1.563 9.333 4.666v3.5H.333v-3.5c0-3.103 6.219-4.666 9.334-4.666Zm0-10.5a4.667 4.667 0 1 1 0 9.333 4.667 4.667 0 0 1 0-9.333Zm0 12.716c-3.465 0-7.117 1.704-7.117 2.45v1.284h14.233v-1.284c0-.746-3.651-2.45-7.116-2.45Zm0-10.5a2.45 2.45 0 1 0 0 4.9 2.45 2.45 0 0 0 0-4.9Z" fill="currentColor"/></symbol><symbol viewBox="0 0 60 60" id="rotate" xmlns="http://www.w3.org/2000/svg"><path d="M25.063 4.688 9.445 20.163l15.618 15.438V25.98c.379-.05.715-.216 1.113-.216 7 0 12.674 5.711 12.674 12.71 0 3.314-1.329 6.287-3.411 8.545l8.294 8.294c4.201-4.38 6.822-10.29 6.822-16.839 0-13.464-10.915-24.414-24.379-24.414-.379 0-.739.086-1.113.108V4.688z" transform="matrix(-1 0 0 1 60 0)" fill="currentColor"/><path d="M25.063 4.688 9.445 20.163l15.618 15.438V25.98c.379-.05.715-.216 1.113-.216 7 0 12.674 5.711 12.674 12.71 0 3.314-1.329 6.287-3.411 8.545l8.294 8.294c4.201-4.38 6.822-10.29 6.822-16.839 0-13.464-10.915-24.414-24.379-24.414-.379 0-.739.086-1.113.108V4.688z" transform="matrix(-1 0 0 1 60 0)" fill="currentColor"/></symbol><symbol fill="none" viewBox="0 0 25 25" id="search" xmlns="http://www.w3.org/2000/svg"><path fill-rule="evenodd" clip-rule="evenodd" d="M11.25 2.333a8.917 8.917 0 1 0 0 17.834 8.917 8.917 0 0 0 0-17.834Zm8.398 15.892a10.917 10.917 0 1 0-1.414 1.415l4.558 4.566a1 1 0 0 0 1.416-1.412l-4.56-4.569Z" fill="currentColor"/></symbol><symbol fill="none" viewBox="0 0 12 14" id="share" xmlns="http://www.w3.org/2000/svg"><path d="M10 9.667c-.525 0-1 .206-1.356.538L3.94 7.467C3.973 7.313 4 7.16 4 7c0-.16-.027-.313-.06-.467l4.7-2.74A1.997 1.997 0 0 0 12 2.333c0-1.106-.893-2-2-2s-2 .894-2 2c0 .16.027.314.06.467l-4.7 2.74A1.997 1.997 0 0 0 0 7a1.997 1.997 0 0 0 3.36 1.46l4.699 2.745c-.038.151-.058.306-.059.462a2 2 0 1 0 2-2Z" fill="currentColor"/></symbol></svg>